Coordinates
version=1
nRows=19
nColumns=63
inDegrees=yes

Units are S.I. units (second, meters, Newtons, ...)
If the header above contains a line with 'inDegrees', this indicates whether rotational values are in degrees (yes) or radians (no).

endheader
time	pelvis_tilt	pelvis_list	pelvis_rotation	pelvis_tx	pelvis_ty	pelvis_tz	hip_flexion_r	hip_adduction_r	hip_rotation_r	knee_angle_r	knee_angle_r_beta	ankle_angle_r	subtalar_angle_r	mtp_angle_r	hip_flexion_l	hip_adduction_l	hip_rotation_l	knee_angle_l	knee_angle_l_beta	ankle_angle_l	subtalar_angle_l	mtp_angle_l	L5_S1_Flex_Ext	L5_S1_Lat_Bending	L5_S1_axial_rotation	L4_L5_Flex_Ext	L4_L5_Lat_Bending	L4_L5_axial_rotation	L3_L4_Flex_Ext	L3_L4_Lat_Bending	L3_L4_axial_rotation	L2_L3_Flex_Ext	L2_L3_Lat_Bending	L2_L3_axial_rotation	L1_L2_Flex_Ext	L1_L2_Lat_Bending	L1_L2_axial_rotation	L1_T12_Flex_Ext	L1_T12_Lat_Bending	L1_T12_axial_rotation	Abs_r3	Abs_r2	Abs_r1	Abs_t1	Abs_t2	neck_flexion	neck_bending	neck_rotation	arm_flex_r	arm_add_r	arm_rot_r	elbow_flex_r	pro_sup_r	wrist_flex_r	wrist_dev_r	arm_flex_l	arm_add_l	arm_rot_l	elbow_flex_l	pro_sup_l	wrist_flex_l	wrist_dev_l
1.101695	3.902671	-4.180575	111.913636	0.334891	0.466517	0.922570	12.693279	-1.061088	-19.952397	11.859058	0.206980	5.343404	0.797108	0.000000	7.724344	0.554494	-14.512252	3.199355	0.055839	9.876352	17.564472	0.000000	0.326680	-0.292399	1.636362	0.606677	-0.388891	1.738634	0.536702	-0.710939	1.738634	0.373362	-0.710939	1.431816	0.303355	-0.596260	1.329544	0.186665	-0.452926	1.227271	2.333442	-3.307676	9.100952	0.000000	0.000000	22.183828	-6.401653	-14.190308	-19.470090	-14.360210	-12.179478	139.132598	70.603882	-9.993885	24.020418	-10.361903	-21.832568	-3.710281	138.241792	77.124831	-11.128475	8.862618
1.118644	3.877386	-4.037078	111.714506	0.335128	0.462547	0.922482	13.308966	-1.036830	-19.123612	13.243555	0.231144	6.359252	-0.802125	0.000000	7.947985	0.429506	-14.348837	3.996841	0.069758	11.724107	17.033690	0.000000	0.309412	-0.276688	1.482492	0.574608	-0.367995	1.575148	0.508332	-0.672740	1.575148	0.353627	-0.672740	1.297181	0.287320	-0.564223	1.204525	0.176798	-0.428590	1.111869	2.210096	-3.129952	8.245177	0.000000	0.000000	22.230094	-5.837486	-12.945061	-17.797891	-14.336929	-11.137079	137.011713	70.777350	-9.901212	22.884664	-11.024788	-21.140766	-4.784591	137.221430	77.549957	-10.446371	9.286159
1.135593	3.892149	-3.951913	111.426042	0.335551	0.458092	0.922729	14.134706	-0.992381	-18.215548	14.791911	0.258168	7.343429	-2.555557	0.000000	8.383313	0.241624	-14.300167	5.044358	0.088041	13.666058	16.408887	0.000000	0.291256	-0.256358	1.317441	0.540891	-0.340956	1.399781	0.478504	-0.623308	1.399781	0.332876	-0.623308	1.152761	0.270460	-0.522765	1.070421	0.166423	-0.397098	0.988081	2.080410	-2.899971	7.327214	0.000000	0.000000	22.433138	-5.280232	-11.496026	-15.948982	-14.202136	-9.979642	134.219699	71.183339	-9.720404	21.686824	-11.760524	-20.329722	-6.012366	135.785806	78.198377	-9.806391	9.851172
1.152542	3.938987	-3.919444	111.068589	0.336140	0.453307	0.923380	15.134276	-0.926778	-17.203632	16.450853	0.287122	8.275948	-4.443553	0.000000	9.011047	0.012017	-14.316488	6.297176	0.109906	15.636150	15.677434	0.000000	0.271294	-0.232470	1.147826	0.503820	-0.309185	1.219565	0.445709	-0.565228	1.219565	0.310062	-0.565228	1.004348	0.251924	-0.474053	0.932609	0.155017	-0.360096	0.860870	1.937825	-2.629747	6.383864	0.000000	0.000000	22.786280	-4.762662	-9.915608	-13.932502	-13.994330	-8.735452	130.754133	71.802058	-9.482504	20.671724	-12.431386	-19.461552	-7.276188	133.830724	79.017483	-9.236424	10.562862
1.169492	4.025109	-3.931695	110.673437	0.336833	0.448390	0.924492	16.248799	-0.833192	-16.107089	18.127797	0.316390	9.108805	-6.423136	0.000000	9.793491	-0.250675	-14.347063	7.670903	0.133883	17.557374	14.852776	0.000000	0.249929	-0.203409	0.974606	0.464143	-0.270535	1.035519	0.410608	-0.494570	1.035519	0.285644	-0.494570	0.852781	0.232084	-0.414793	0.791868	0.142809	-0.315081	0.730955	1.785216	-2.301008	5.420468	0.000000	0.000000	23.261691	-4.313882	-8.226676	-11.731943	-13.740113	-7.448909	126.523934	72.706199	-9.118300	19.791965	-12.921222	-18.559231	-8.503084	131.230342	79.971994	-8.776815	11.342832
1.186441	4.158648	-3.980907	110.306532	0.337525	0.443541	0.926139	17.409587	-0.731331	-15.048803	19.729485	0.344344	9.832151	-8.328310	0.000000	10.703642	-0.532647	-14.320620	9.095583	0.158748	19.354196	13.968318	0.000000	0.227848	-0.167382	0.792276	0.423137	-0.222618	0.841793	0.374331	-0.406972	0.841793	0.260407	-0.406972	0.693241	0.211580	-0.341325	0.643724	0.130192	-0.259275	0.594207	1.627495	-1.893457	4.406401	0.000000	0.000000	23.825907	-3.952658	-6.434693	-9.282070	-13.499298	-5.957840	121.445442	73.741681	-8.719745	19.032794	-13.116111	-17.676515	-9.556156	127.871158	81.049781	-8.543923	12.111730
1.203390	4.342766	-4.071829	109.975083	0.338193	0.438945	0.928343	18.580070	-0.617426	-14.007836	21.185785	0.369762	10.404721	-10.138761	0.000000	11.703693	-0.827150	-14.257564	10.480976	0.182928	20.945287	13.100646	0.000000	0.207746	-0.124027	0.616162	0.385805	-0.164956	0.654672	0.341306	-0.301560	0.654672	0.237433	-0.301560	0.539142	0.192913	-0.252916	0.500632	0.118706	-0.192118	0.462121	1.483910	-1.403019	3.426908	0.000000	0.000000	24.430248	-3.727802	-4.635523	-6.659592	-13.263321	-4.820489	115.463208	75.637497	-8.088038	18.387072	-12.881071	-16.814725	-10.332219	123.613793	82.266909	-8.321372	12.789485
1.220339	4.589199	-4.191824	109.768577	0.338706	0.434757	0.931144	19.679229	-0.505174	-13.189294	22.398951	0.390935	10.830024	-11.622588	0.000000	12.772605	-1.124744	-14.027018	11.786042	0.205705	22.266399	12.219688	0.000000	0.190687	-0.071448	0.442514	0.354126	-0.095025	0.470171	0.313280	-0.173718	0.470171	0.217937	-0.173718	0.387200	0.177072	-0.145696	0.359543	0.108959	-0.110673	0.331886	1.362061	-0.808231	2.461132	0.000000	0.000000	25.027175	-3.679617	-2.883533	-3.844982	-13.124335	-3.977842	108.544500	78.290156	-7.476023	17.766230	-12.090749	-16.027347	-10.517600	118.354126	83.504841	-8.386272	13.057347
1.237288	4.884961	-4.333193	109.685818	0.339061	0.431106	0.934478	20.643934	-0.404457	-12.654282	23.298441	0.406635	11.116972	-12.623435	0.000000	13.857093	-1.407885	-13.660474	12.944444	0.225923	23.262019	11.378892	0.000000	0.177332	-0.011057	0.279163	0.329323	-0.014705	0.296611	0.291339	-0.026883	0.296611	0.202673	-0.026883	0.244268	0.164671	-0.022547	0.226820	0.101328	-0.017127	0.209372	1.266665	-0.125076	1.552621	0.000000	0.000000	25.574979	-3.802348	-1.202837	-0.663267	-13.079289	-1.568182	100.629719	80.028705	-6.967028	16.802089	-10.700418	-15.320002	-9.978710	112.108625	84.730166	-8.692108	12.821957
1.254237	5.218360	-4.499280	109.717715	0.339269	0.428052	0.938222	21.440889	-0.320621	-12.427321	23.847031	0.416209	11.277577	-13.057497	0.000000	14.918139	-1.664362	-13.163154	13.906707	0.242718	23.903944	10.597181	0.000000	0.169468	0.054387	0.143803	0.314719	0.072335	0.152790	0.278419	0.132237	0.152790	0.193685	0.132237	0.125827	0.157368	0.110907	0.116840	0.096834	0.084246	0.107852	1.210494	0.615241	0.799786	0.000000	0.000000	26.054065	-4.115746	0.287760	2.575464	-13.149602	0.921715	91.976184	82.226488	-6.525465	15.689565	-8.702616	-14.692687	-8.574661	104.986915	85.867779	-9.211207	12.038606
1.271186	5.573319	-4.691239	109.895139	0.339320	0.425646	0.942233	22.020296	-0.268655	-12.618784	23.995383	0.418798	11.310500	-12.807896	0.000000	15.916335	-1.870236	-12.509443	14.626108	0.255274	24.158217	9.869807	0.000000	0.168554	0.121239	0.020669	0.313021	0.161248	0.021961	0.276917	0.294781	0.021961	0.192640	0.294781	0.018086	0.156519	0.247231	0.016794	0.096312	0.187799	0.015502	1.203963	1.371481	0.114957	0.000000	0.000000	26.481485	-4.546945	1.635281	5.968619	-13.301665	5.495774	82.711534	82.703023	-6.133632	14.140657	-6.292811	-14.130429	-6.539410	97.283197	86.737459	-9.744581	10.876449
1.288136	5.919983	-4.906291	110.162055	0.339287	0.423914	0.946324	22.359916	-0.259058	-13.181721	23.740974	0.414358	11.244303	-11.832111	0.000000	16.800626	-2.005993	-11.787909	15.069326	0.263009	24.030868	9.224699	0.000000	0.174510	0.184570	-0.073852	0.324083	0.245478	-0.078468	0.286703	0.448763	-0.078468	0.199448	0.448763	-0.064621	0.162050	0.376375	-0.060005	0.099715	0.285899	-0.055389	1.246509	2.087892	-0.410745	0.000000	0.000000	26.847187	-5.074111	2.743082	9.322765	-13.499664	11.732974	73.149923	81.630752	-5.759614	12.255095	-3.571206	-13.665650	-3.924494	89.286759	87.306200	-10.276486	9.553759
1.305085	6.223569	-5.131707	110.486716	0.339225	0.422875	0.950321	22.435809	-0.307345	-14.084224	23.102240	0.403210	11.108893	-10.140335	0.000000	17.517411	-2.052756	-11.063577	15.214880	0.265550	23.552875	8.691951	0.000000	0.185681	0.239328	-0.133831	0.344829	0.318306	-0.142195	0.305056	0.581902	-0.142195	0.212215	0.581902	-0.117102	0.172424	0.488037	-0.108737	0.106098	0.370719	-0.100373	1.326302	2.707324	-0.744325	0.000000	0.000000	27.139357	-5.649602	3.569116	12.495271	-13.703204	19.209691	63.599730	79.125829	-5.395990	10.130834	-0.668690	-13.323845	-0.878010	81.288859	87.543222	-10.731198	8.317042
1.322034	6.457527	-5.352865	110.849074	0.339184	0.422526	0.954037	22.221637	-0.403277	-15.184274	22.082719	0.385416	10.915077	-7.921375	0.000000	18.006025	-1.996266	-10.351283	15.019807	0.262145	22.750432	8.273953	0.000000	0.200644	0.281616	-0.165939	0.372615	0.374550	-0.176310	0.329637	0.684722	-0.176310	0.229315	0.684722	-0.145197	0.186318	0.574272	-0.134826	0.114648	0.436224	-0.124454	1.433176	3.185700	-0.922904	0.000000	0.000000	27.365016	-6.167542	4.174016	15.419255	-13.883092	27.663886	54.326874	75.329219	-5.067917	7.790848	2.230567	-13.104953	2.417935	73.555384	87.436621	-11.092375	7.251678
1.338983	6.592294	-5.561346	111.195910	0.339247	0.422797	0.957353	21.732165	-0.551728	-16.359622	20.740252	0.361986	10.684267	-5.319887	0.000000	18.238379	-1.831446	-9.767973	14.490867	0.252913	21.688078	8.046684	0.000000	0.216734	0.306881	-0.163721	0.402497	0.408152	-0.173954	0.356073	0.746151	-0.173954	0.247706	0.746151	-0.143256	0.201259	0.625792	-0.133024	0.123842	0.475359	-0.122791	1.548111	3.471500	-0.910568	0.000000	0.000000	27.536366	-6.582836	4.503956	18.016076	-14.011475	36.655061	45.596881	70.530535	-4.725337	5.351345	5.000319	-13.005399	5.794858	66.327336	87.139777	-11.196824	6.510283
1.355932	6.632717	-5.756505	111.534231	0.339382	0.423547	0.960218	21.002661	-0.748968	-17.582858	19.147514	0.334187	10.465384	-2.430106	0.000000	18.243895	-1.569921	-9.311115	13.695649	0.239034	20.470255	7.980796	0.000000	0.234706	0.315507	-0.137360	0.435873	0.419625	-0.145945	0.385599	0.767124	-0.145945	0.268246	0.767124	-0.120190	0.217948	0.643382	-0.111605	0.134111	0.488721	-0.103020	1.676483	3.569081	-0.763957	0.000000	0.000000	27.655657	-6.907781	4.558667	20.253850	-14.083185	45.941902	37.634490	64.992143	-4.381638	2.891153	7.512768	-12.983450	9.101338	59.763619	86.750667	-11.018490	6.031276
1.372881	6.563835	-5.923467	111.828924	0.339645	0.424659	0.962577	20.066017	-0.993681	-18.791930	17.387657	0.303472	10.275055	0.626639	0.000000	18.001392	-1.214034	-8.954001	12.641812	0.220641	19.134286	8.006015	0.000000	0.250846	0.306270	-0.094755	0.465846	0.407339	-0.100677	0.412115	0.744665	-0.100677	0.286692	0.744665	-0.082911	0.232936	0.624546	-0.076988	0.143333	0.474412	-0.071066	1.791769	3.464588	-0.526999	0.000000	0.000000	27.729558	-7.063771	4.430188	22.333609	-14.034941	57.053527	30.403332	57.201135	-3.893641	0.139363	9.654823	-13.033487	12.132705	54.032381	86.416391	-10.404424	5.760417
1.389831	6.403901	-6.058913	112.054833	0.340015	0.425938	0.964436	18.993005	-1.263345	-19.900745	15.561658	0.271602	10.124740	3.681357	0.000000	17.551042	-0.793383	-8.748219	11.404213	0.199041	17.780136	8.156433	0.000000	0.263764	0.283013	-0.032879	0.489837	0.376407	-0.034934	0.433339	0.688118	-0.034934	0.301456	0.688118	-0.028769	0.244932	0.577120	-0.026714	0.150715	0.438387	-0.024659	1.884043	3.201500	-0.182863	0.000000	0.000000	27.778028	-7.080594	4.180311	23.888973	-13.951817	66.845920	24.324717	50.106610	-3.429909	-2.386171	11.417932	-13.136636	14.950662	49.207893	86.161726	-9.574477	5.519506
1.406780	6.172456	-6.171310	112.196587	0.340503	0.427200	0.965852	17.873335	-1.547507	-20.883703	13.781586	0.240534	10.033262	6.636037	0.000000	16.958963	-0.338621	-8.692769	10.071858	0.175787	16.478212	8.411718	0.000000	0.273813	0.248846	0.044676	0.508499	0.330966	0.047468	0.449848	0.605045	0.047468	0.312941	0.605045	0.039092	0.254263	0.507448	0.036299	0.156457	0.385463	0.033507	1.955822	2.815001	0.248475	0.000000	0.000000	27.812978	-6.964328	3.906228	24.921455	-13.857656	75.190701	19.484894	43.650581	-2.954938	-4.703345	12.803803	-13.303704	17.512001	45.314814	85.984332	-8.560281	5.216484
